<svg width="32" height="32" viewBox="0 0 32 32" fill="none" xmlns="http://www.w3.org/2000/svg">
    <path fill-rule="evenodd" clip-rule="evenodd"
          d="M22.5738 9.33341C22.6161 9.23892 22.636 9.13593 22.6318 9.03251H22.6667C22.5176 5.47463 19.5799 2.66675 16.0066 2.66675C12.4333 2.66675 9.49563 5.47463 9.34652 9.03251C9.32894 9.13205 9.32894 9.23388 9.34652 9.33341H9.24228C7.53362 9.33341 5.70713 10.4614 5.17685 13.4935L4.13987 21.7531C3.29144 27.8173 6.41416 29.3334 10.4914 29.3334H21.5446C25.6101 29.3334 28.6385 27.1381 27.8843 21.7531L26.8592 13.4935C26.2346 10.5463 24.467 9.33341 22.7819 9.33341H22.5738ZM20.6576 9.33341C20.6205 9.23734 20.6008 9.13545 20.5995 9.03251C20.5995 6.47585 18.5198 4.40326 15.9543 4.40326C13.3889 4.40326 11.3091 6.47585 11.3091 9.03251C11.3267 9.13205 11.3267 9.23388 11.3091 9.33341H20.6576ZM12.1293 16.1982C11.4785 16.1982 10.9509 15.6552 10.9509 14.9853C10.9509 14.3155 11.4785 13.7725 12.1293 13.7725C12.7801 13.7725 13.3077 14.3155 13.3077 14.9853C13.3077 15.6552 12.7801 16.1982 12.1293 16.1982ZM18.6694 14.9853C18.6694 15.6552 19.197 16.1982 19.8478 16.1982C20.4986 16.1982 21.0261 15.6552 21.0261 14.9853C21.0261 14.3155 20.4986 13.7725 19.8478 13.7725C19.197 13.7725 18.6694 14.3155 18.6694 14.9853Z"
          fill="#EE8CB1"/>
</svg>
