<svg width="12" height="13" viewBox="0 0 12 13" fill="none" xmlns="http://www.w3.org/2000/svg">
    <path d="M6 2.90972C6.55228 2.90972 7 2.48222 7 1.95486C7 1.42751 6.55228 1 6 1C5.44772 1 5 1.42751 5 1.95486C5 2.48222 5.44772 2.90972 6 2.90972Z"
          stroke="#28292E" stroke-linecap="round" stroke-linejoin="round"/>
    <path d="M3.25 1H2.5C2.30109 1 2.11032 1.07545 1.96967 1.20975C1.82902 1.34406 1.75 1.52621 1.75 1.71615V2.43229M10.25 2.43229V1.71615C10.25 1.52621 10.171 1.34406 10.0303 1.20975C9.88968 1.07545 9.69891 1 9.5 1H8.75M8.75 11.9809H9.5C9.69891 11.9809 9.88968 11.9055 10.0303 11.7711C10.171 11.6368 10.25 11.4547 10.25 11.2648V10.5486M1.75 10.5486V11.2648C1.75 11.4547 1.82902 11.6368 1.96967 11.7711C2.11032 11.9055 2.30109 11.9809 2.5 11.9809H3.25M6 3.86458C5.2773 3.86431 4.57016 4.06505 3.965 4.44227C3.89807 4.48661 3.8435 4.54588 3.80602 4.61494C3.76855 4.68401 3.74932 4.76076 3.75 4.83854V8.18056H4.75V12H7.25V8.18056H8.25V4.83854C8.25068 4.76076 8.23145 4.68401 8.19398 4.61494C8.1565 4.54588 8.10193 4.48661 8.035 4.44227C7.42984 4.06505 6.7227 3.86431 6 3.86458V3.86458Z"
          stroke="#28292E" stroke-linecap="round" stroke-linejoin="round"/>
</svg>
