<svg width="17" height="17" viewBox="0 0 17 17" fill="none" xmlns="http://www.w3.org/2000/svg">
    <g clip-path="url(#clip0_1602_1656)">
        <path d="M14.2142 10.2821C14.2142 10.5202 14.1309 10.7226 13.9642 10.8893C13.7976 11.0559 13.5952 11.1393 13.3571 11.1393C13.0535 11.1393 12.8154 11.0113 12.6428 10.7554L10.616 7.71071H10.2142V8.88928L12.4196 12.5589C12.4731 12.6482 12.4999 12.7464 12.4999 12.8536C12.4999 13.0083 12.4434 13.1423 12.3303 13.2554C12.2172 13.3684 12.0833 13.425 11.9285 13.425H10.2142V15.8536C10.2142 16.1274 10.116 16.3625 9.91957 16.5589C9.72315 16.7554 9.48803 16.8536 9.21422 16.8536H7.78564C7.51184 16.8536 7.27672 16.7554 7.08029 16.5589C6.88386 16.3625 6.78564 16.1274 6.78564 15.8536V13.425H5.07136C4.9166 13.425 4.78267 13.3684 4.66957 13.2554C4.55648 13.1423 4.49993 13.0083 4.49993 12.8536C4.49993 12.7464 4.52672 12.6482 4.58029 12.5589L6.78564 8.88928V7.71071H6.38386L4.35707 10.7554C4.18445 11.0113 3.94636 11.1393 3.64279 11.1393C3.40469 11.1393 3.20231 11.0559 3.03564 10.8893C2.86898 10.7226 2.78564 10.5202 2.78564 10.2821C2.78564 10.1095 2.83326 9.95178 2.9285 9.80893L5.21422 6.38035C5.64874 5.74345 6.17255 5.425 6.78564 5.425H10.2142C10.8273 5.425 11.3511 5.74345 11.7856 6.38035L14.0714 9.80893C14.1666 9.95178 14.2142 10.1095 14.2142 10.2821ZM10.4999 3.13928C10.4999 3.69285 10.305 4.16458 9.91511 4.55446C9.52523 4.94434 9.0535 5.13928 8.49993 5.13928C7.94636 5.13928 7.47463 4.94434 7.08475 4.55446C6.69487 4.16458 6.49993 3.69285 6.49993 3.13928C6.49993 2.58571 6.69487 2.11398 7.08475 1.7241C7.47463 1.33422 7.94636 1.13928 8.49993 1.13928C9.0535 1.13928 9.52523 1.33422 9.91511 1.7241C10.305 2.11398 10.4999 2.58571 10.4999 3.13928Z"
              fill="black"/>
    </g>
    <defs>
        <clipPath id="clip0_1602_1656">
            <rect width="16" height="16" fill="white" transform="translate(0.5 0.853516)"/>
        </clipPath>
    </defs>
</svg>
