<svg width="16" height="17" viewBox="0 0 16 17" fill="none" xmlns="http://www.w3.org/2000/svg">
<path fill-rule="evenodd" clip-rule="evenodd" d="M5.91853 4.58831C5.91853 5.83276 4.89261 6.84141 3.62595 6.84141C2.36003 6.84141 1.33337 5.83276 1.33337 4.58831C1.33337 3.34459 2.36003 2.33594 3.62595 2.33594C4.89261 2.33594 5.91853 3.34459 5.91853 4.58831ZM13.6623 3.60149C14.2163 3.60149 14.6667 4.04396 14.6667 4.58831C14.6667 5.13339 14.2163 5.57586 13.6623 5.57586H9.27859C8.72378 5.57586 8.27341 5.13339 8.27341 4.58831C8.27341 4.04396 8.72378 3.60149 9.27859 3.60149H13.6623ZM2.33855 10.9746H6.72223C7.27704 10.9746 7.72741 11.417 7.72741 11.9621C7.72741 12.5065 7.27704 12.9497 6.72223 12.9497H2.33855C1.78374 12.9497 1.33337 12.5065 1.33337 11.9621C1.33337 11.417 1.78374 10.9746 2.33855 10.9746ZM12.3741 14.1878C13.6408 14.1878 14.6667 13.1791 14.6667 11.9354C14.6667 10.691 13.6408 9.68231 12.3741 9.68231C11.1082 9.68231 10.0815 10.691 10.0815 11.9354C10.0815 13.1791 11.1082 14.1878 12.3741 14.1878Z" fill="#8A8A98"/>
</svg>
