<svg width="328" height="27" viewBox="0 0 328 27" fill="none" xmlns="http://www.w3.org/2000/svg">
    <path d="M25.9971 13.4181C17.615 13.4181 13.4219 9.22912 13.4178 0.851148C13.4137 9.22912 9.22067 13.4181 0.838607 13.4181C9.22476 13.4181 13.4178 17.6112 13.4178 25.9973C13.4178 17.6112 17.6109 13.4181 25.9971 13.4181Z"
          fill="#DF3E00"/>
    <line x1="279.164" y1="14.3511" x2="48.8357" y2="14.3511" stroke="url(#paint0_linear_660_3815)"
          stroke-width="1.86631"/>
    <path d="M327.161 13.4181C318.779 13.4181 314.586 9.22912 314.582 0.851148C314.578 9.22912 310.385 13.4181 302.003 13.4181C310.389 13.4181 314.582 17.6112 314.582 25.9973C314.582 17.6112 318.775 13.4181 327.161 13.4181Z"
          fill="#DF3E00"/>
    <defs>
        <linearGradient id="paint0_linear_660_3815" x1="317.477" y1="13.418" x2="78.5846" y2="13.418"
                        gradientUnits="userSpaceOnUse">
            <stop stop-color="#EE8CB1"/>
            <stop offset="1" stop-color="#EE8CB1"/>
        </linearGradient>
    </defs>
</svg>
