<svg width="33" height="32" viewBox="0 0 33 32" fill="none" xmlns="http://www.w3.org/2000/svg">
    <path fill-rule="evenodd" clip-rule="evenodd"
          d="M10.6821 11.6184H22.3179C25.5594 11.6184 28.1875 14.1107 28.1875 17.1846V23.7671C28.1875 26.841 25.5594 29.3333 22.3179 29.3333H10.6821C7.44062 29.3333 4.8125 26.841 4.8125 23.7671V17.1846C4.8125 14.1107 7.44062 11.6184 10.6821 11.6184ZM16.493 23.1059C17.1776 23.1059 17.7225 22.5892 17.7225 21.9399V18.9985C17.7225 18.3625 17.1776 17.8458 16.493 17.8458C15.8224 17.8458 15.2775 18.3625 15.2775 18.9985V21.9399C15.2775 22.5892 15.8224 23.1059 16.493 23.1059Z"
          fill="#1D97DE"/>
    <path opacity="0.4"
          d="M24.0938 9.86135V11.8223C23.6048 11.6898 23.0879 11.6236 22.5569 11.6236H21.6487V9.86135C21.6487 7.17166 19.3434 4.98545 16.5071 4.98545C13.6708 4.98545 11.3654 7.15841 11.3515 9.83485V11.6236H10.4573C9.91235 11.6236 9.39539 11.6898 8.90637 11.8356V9.86135C8.92034 5.88643 12.3155 2.66675 16.4791 2.66675C20.6987 2.66675 24.0938 5.88643 24.0938 9.86135Z"
          fill="#1D97DE"/>
</svg>
