<svg width="12" height="17" viewBox="0 0 12 17" fill="none" xmlns="http://www.w3.org/2000/svg">
<g clip-path="url(#clip0_1602_1658)">
<path d="M4.93605 16.3461C4.69552 16.2672 4.50505 16.0897 4.45065 15.8938C4.42897 15.8157 4.41863 14.2186 4.41853 10.9273L4.41836 6.07587H4.17464V7.90718C4.17464 9.70246 4.17339 9.74068 4.11165 9.84928C4.03168 9.98993 3.94184 10.0558 3.76607 10.1029C3.50617 10.1724 3.22193 10.0396 3.11987 9.8011C3.0542 9.64762 3.05848 5.55406 3.12458 5.30029C3.27357 4.72832 3.75603 4.25971 4.31874 4.14046C4.61516 4.07766 7.35572 4.07688 7.65127 4.13952C7.9523 4.20333 8.21088 4.34766 8.43967 4.57961C8.67499 4.81819 8.78484 5.01172 8.86679 5.3321C8.92389 5.55541 8.92704 5.67501 8.92704 7.62016C8.92704 9.39826 8.92078 9.68759 8.88018 9.78474C8.81707 9.93581 8.75212 10.0038 8.60717 10.0703C8.36664 10.1808 8.06094 10.1097 7.91872 9.9103L7.84557 9.80773L7.83727 7.9418L7.82897 6.07587H7.58662V10.9511C7.58662 16.2953 7.59871 15.9404 7.40985 16.1394C7.26063 16.2966 7.1085 16.3561 6.85548 16.3561C6.60247 16.3561 6.45033 16.2966 6.30113 16.1395C6.11593 15.9443 6.12434 16.0956 6.12434 12.9617V10.0971H5.88064V12.9618C5.88064 15.2962 5.87304 15.8445 5.83956 15.9244C5.77818 16.0709 5.64466 16.2153 5.50451 16.2868C5.36942 16.3557 5.06274 16.3877 4.93604 16.3461L4.93605 16.3461ZM5.62129 3.79892C5.25302 3.66741 5.0254 3.46464 4.86429 3.12462C4.77512 2.93641 4.76869 2.90025 4.76869 2.58708C4.76869 2.27022 4.77422 2.2401 4.86721 2.05124C5.33158 1.10794 6.67226 1.10563 7.13586 2.04733C7.23184 2.2423 7.23629 2.26687 7.23629 2.60232C7.23629 2.92491 7.22941 2.96732 7.15114 3.1267C7.01965 3.39444 6.82545 3.58969 6.56019 3.72078C6.35424 3.82257 6.30194 3.83525 6.0523 3.84387C5.84283 3.8511 5.73626 3.83999 5.62129 3.79892Z" fill="black"/>
</g>
<defs>
<clipPath id="clip0_1602_1658">
<rect width="11.3131" height="16" fill="white" transform="translate(0.343262 0.853516)"/>
</clipPath>
</defs>
</svg>
