<svg width="32" height="32" viewBox="0 0 32 32" fill="none" xmlns="http://www.w3.org/2000/svg">
    <path d="M23.8913 19.0935C23.546 19.4282 23.3873 19.9122 23.466 20.3868L24.6513 26.9468C24.7513 27.5028 24.5166 28.0655 24.0513 28.3868C23.5953 28.7202 22.9886 28.7602 22.4913 28.4935L16.586 25.4135C16.3806 25.3042 16.1526 25.2455 15.9193 25.2388H15.558C15.4326 25.2575 15.31 25.2975 15.198 25.3588L9.29131 28.4535C8.99931 28.6002 8.66864 28.6522 8.34464 28.6002C7.55531 28.4508 7.02864 27.6988 7.15797 26.9055L8.34464 20.3455C8.42331 19.8668 8.26464 19.3802 7.91931 19.0402L3.10464 14.3735C2.70197 13.9828 2.56197 13.3962 2.74597 12.8668C2.92464 12.3388 3.38064 11.9535 3.93131 11.8668L10.558 10.9055C11.062 10.8535 11.5046 10.5468 11.7313 10.0935L14.6513 4.10683C14.7206 3.9735 14.81 3.85083 14.918 3.74683L15.038 3.6535C15.1006 3.58416 15.1726 3.52683 15.2526 3.48016L15.398 3.42683L15.6246 3.3335H16.186C16.6873 3.3855 17.1286 3.6855 17.3593 4.1335L20.318 10.0935C20.5313 10.5295 20.946 10.8322 21.4246 10.9055L28.0513 11.8668C28.6113 11.9468 29.0793 12.3335 29.2646 12.8668C29.4393 13.4015 29.2886 13.9882 28.878 14.3735L23.8913 19.0935Z"
          fill="#DF3E00"/>
</svg>
